<svg xmlns="http://www.w3.org/2000/svg" viewBox="0 0 59.03 59.03"><defs><style>.cls-1 { fill: #e7484a; }</style></defs><g id="Plan_de_travail_1"><path id="Tracé_1" d="M37.17 49.66a.42.42 0 0 0-.22-.25.45.45 0 0 0-.35 0 .43.43 0 0 0-.24.2.36.36 0 0 0 0 .32.5.5 0 0 0 .16.23 2.36 2.36 0 0 0 .37.22q.38-.4.27-.7z" class="cls-1"/><path id="Tracé_2" d="M26.96 51.06c-.04-.23-.06-.38-.07-.44l-.02-.1q-.08.2-.6 1.33l-.08.15.96.12-.03-.16c-.07-.36-.12-.66-.17-.9z" class="cls-1"/><path id="Tracé_3" d="M22.04 11.9a1.78 1.78 0 0 0 1.12-2.43 1.75 1.75 0 0 0-2.5-.9l-.64.27 1.37 3.33z" class="cls-1"/><path id="Tracé_4" d="M47.58 19.04a1.86 1.86 0 1 0-2.6-.48 1.8 1.8 0 0 0 2.6.48z" class="cls-1"/><path id="Tracé_5" d="M7.24 27.1l-.1.96.16-.03q.54-.12.9-.2l.44-.08.1-.02q-.2-.07-1.36-.57z" class="cls-1"/><path id="Tracé_6" d="M36.87 50.8a1.14 1.14 0 0 0-.28.34.37.37 0 0 0-.03.3.38.38 0 0 0 .3.25.96.96 0 0 0 .53-.07 1.1 1.1 0 0 0 .52-.38l-1.04-.44z" class="cls-1"/><path id="Tracé_7" d="M15.2 45.1l-1.48 1.68.36.3a.97.97 0 0 0 .8.28 1.25 1.25 0 0 0 .75-.45 1.08 1.08 0 0 0 .3-.76 1 1 0 0 0-.4-.74z" class="cls-1"/><path id="Tracé_8" d="M51.33 33.06a1.28 1.28 0 0 0-.86.08.88.88 0 0 0-.24 1.3 1.3 1.3 0 0 0 .76.4 1.26 1.26 0 0 0 .85-.1.87.87 0 0 0 .25-1.3 1.3 1.3 0 0 0-.77-.38z" class="cls-1"/><path id="Tracé_9" d="M29.52 0a29.52 29.52 0 1 0 29.5 29.52A29.5 29.5 0 0 0 29.53 0zm22.42 29.7l-1.87-.05v-.46l1.87.04a1.2 1.2 0 0 1 .88.33 1.3 1.3 0 0 1-.03 1.67 1.15 1.15 0 0 1-.88.28l-1.9-.05V31l1.9.06a.74.74 0 0 0 .57-.17.68.68 0 0 0 .18-.5q.02-.68-.74-.7zm-1.75-3.2l.14 1.26.93-.1-.13-1.12.38-.04.13 1.1.92-.1-.15-1.28.4-.04.2 1.73-3 .36-.2-1.7zm-5.43-11.55a3.1 3.1 0 1 1-.7 4.22 3 3 0 0 1 .7-4.22zm-1.8-5.05l.96.7-3.4 4.6-.97-.72zm-8.06.4a1.7 1.7 0 0 0 1.06 1.27c.48.18.86.06 1-.3.12-.36-.1-.58-.45-.93l-.48-.48c-.65-.63-1.04-1.27-.76-2.02a1.72 1.72 0 0 1 2.37-.86 2.1 2.1 0 0 1 1.43 1.68l-.97.3a1.3 1.3 0 0 0-.83-1c-.36-.13-.74-.1-.87.27-.1.3.08.52.4.85l.54.5c.72.7 1.05 1.3.77 2.06a1.8 1.8 0 0 1-2.5.9 2.52 2.52 0 0 1-1.67-1.95zm-3.46-4.68l.02 1.06-2.72.04.02 1.16 2-.03v1l-2 .02.04 1.45 2.82-.05.02 1.05-4 .07-.1-5.72zM20.27 7.6A2.86 2.86 0 0 1 24.3 9a2.9 2.9 0 0 1-1.85 3.86l-1.76.73-2.2-5.28zm-5.4 3.28l3.7 4.34-.9.77-3.7-4.35zm-3.6 3.5l.87.6-1.47 2.17 1.2.8 1.2-1.8.87.6-1.2 1.78 1.8 1.2-.66 1-4.75-3.18zM5.98 28.3l.75-.16.12-1.2-.7-.33.03-.47 2.9 1.34-.06.6-3.1.72zm.33 2a1.5 1.5 0 0 1 1.1-.5 1.48 1.48 0 0 1 1.64 1.44 1.75 1.75 0 0 1-.15.9l-.47.02a1.58 1.58 0 0 0 .2-.87 1.03 1.03 0 0 0-.37-.77 1.28 1.28 0 0 0-1.63.1 1.1 1.1 0 0 0-.25.82 1.33 1.33 0 0 0 .13.5l.83-.06-.04-.62.4-.02.07 1.06-1.46.1H6.3a1.8 1.8 0 0 1 .02-2.12zm-.05 3.46l2.96-.62.34 1.7-.37.07-.25-1.22-.9.2.22 1.08-.38.08-.24-1.1-.92.2L7 35.4l-.37.07zm1.5 5.2l-.2-.52.94-1.13q.25-.3.48-.56t.33-.37l.1-.1q-.4.18-1.12.44l-1.18.44-.15-.43 2.83-1.02.18.5-.93 1.14q-.26.32-.5.58t-.3.35l-.1.1q.37-.16 1.1-.43l1.2-.43.16.42zm1.76 3.1a1.36 1.36 0 0 1-.53-.6 1.58 1.58 0 0 1 1.82-2.24 1.5 1.5 0 0 1 .9.76 1.56 1.56 0 0 1 .23.76l-.4.2a1.7 1.7 0 0 0-.04-.37 1.6 1.6 0 0 0-.15-.38 1.02 1.02 0 0 0-.63-.52 1.25 1.25 0 0 0-1.43.78 1.06 1.06 0 0 0 .1.84 1.17 1.17 0 0 0 .55.53zm2.85 1.35l-.32.24-.66-.9-.75.55.76 1.02-.3.23-1.04-1.4 2.42-1.8 1.02 1.4-.3.22-.76-1-.75.54zm1.43 3.98l-.72-.63 2-2.27.7.62a1.52 1.52 0 0 1 .56 1.04 1.42 1.42 0 0 1-.37 1.08 1.55 1.55 0 0 1-1.04.57 1.45 1.45 0 0 1-1.14-.42zm2.15 1.7l1.7-2.5.38.27-1.7 2.5zm4.65-.07a1.57 1.57 0 0 0-.66-.6 1.03 1.03 0 0 0-.84-.06 1.28 1.28 0 0 0-.74 1.45 1.08 1.08 0 0 0 .57.62 1.33 1.33 0 0 0 .5.15l.38-.75-.55-.27.18-.36.95.47-.65 1.3v.02a1.6 1.6 0 0 1-1-.2 1.6 1.6 0 0 1-.84-.88 1.48 1.48 0 0 1 .13-1.2 1.48 1.48 0 0 1 2.08-.7 1.75 1.75 0 0 1 .7.58zm.65 2.87l-.43-.16 1.1-2.8.42.16zm3.7-1.6l-.76-.22-.7 2.54-.45-.14.7-2.54-.76-.2.1-.38 1.98.54zm2.4 3l-.14-.75-1.2-.15-.34.7-.5-.06 1.43-2.86.6.07.64 3.14zm1.66.1l-.04-3h.46l.03 2.6 1.23-.02v.4zm2.83-.12l-.4-3 1.7-.22.05.38-1.25.18.13.92 1.1-.15.05.4-1.1.14.13.9 1.26-.16.06.38zm3.27-17.57h-1.86c-.1-.18-.25-.9-.4-1.18l-2.43-1.74 3.66 8.1a11.86 11.86 0 0 1-12.83-4.75 7.65 7.65 0 0 1-.2-1.9 15.05 15.05 0 0 1 .17-2.37c-.65-.16-1.08 1.47-1.08 1.47a6.93 6.93 0 0 1 .96-3.97.85.85 0 0 1-.96-.64 1.88 1.88 0 0 0 1.47-.94 1 1 0 0 1-.75-.8 3.5 3.5 0 0 0 2.64-1.7c-.25-.26-1.1 0-1.1 0a2.85 2.85 0 0 1 2.22-1.14 3.7 3.7 0 0 1 .1-2.47c.22 1.27 1.7 1.47 1.7 1.47a5.84 5.84 0 0 1 .5-1.73s-.23 1.23 3.2 1.55a6.5 6.5 0 0 1 1.05.17c.8-1.14 2.34-2.1 2.2-1.8a8.36 8.36 0 0 0-.48 1.93 2.64 2.64 0 0 1-.13.53L41.64 20l.07.08-6.76 5.26 2.9 8.12-.45 1.15-1.16.84-1.07-1.4-.46.02zm3.5 15.88l-.35-.14a1.45 1.45 0 0 1-.76.58 1.4 1.4 0 0 1-.88.07.72.72 0 0 1-.5-.45q-.2-.5.38-.96a1.12 1.12 0 0 1-.62-.57.72.72 0 0 1 .03-.62 1.05 1.05 0 0 1 1.2-.43.79.79 0 0 1 .44.94 1.4 1.4 0 0 1-.38.53l.84.37a1 1 0 0 0-.03-.44l.38-.14a1.35 1.35 0 0 1 .04.74l.42.18c.18.07.27.1.3.12zm3.42-1.8l-1.42-2.22-.67.43-.2-.32 1.7-1.1.22.32-.67.43 1.42 2.2zM44 48.4l-1.93-2.3L43.4 45l.23.3-.96.8.6.72.85-.72.25.3-.85.7.6.73.98-.82.25.3zm3.23-3a1.46 1.46 0 0 1-2.18.1 1.48 1.48 0 0 1-.1-2.18 1.57 1.57 0 0 1 .63-.46l.33.3a1.37 1.37 0 0 0-.64.44 1 1 0 0 0-.28.76 1.25 1.25 0 0 0 1.2 1.1 1.06 1.06 0 0 0 .76-.38 1.17 1.17 0 0 0 .32-.7l.35.32a1.4 1.4 0 0 1-.36.7zm2.27-3.1l-1.1-.74-.75 1.13 1.1.72-.25.38-2.52-1.66.26-.38 1.08.7.75-1.1-1.1-.73.27-.38 2.5 1.66zm1.7-3.3l-1.44.16q-.4.04-.74.07c-.23.02-.4.03-.5.03h-.15q.42.16 1.1.48l1.16.52-.2.42-2.72-1.26.23-.5 1.46-.15q.4-.04.74-.07c.23-.02.4-.03.48-.03h.14q-.4-.15-1.1-.48l-1.16-.53.2-.42 2.74 1.25zm.68-1.78L49 36.3l.14-.44 2.87.92zm.8-2.98a1.3 1.3 0 0 1-.6.9 1.88 1.88 0 0 1-2.22-.4 1.42 1.42 0 0 1 .38-2 1.64 1.64 0 0 1 1.18-.15 1.85 1.85 0 0 1 .82.34 1.23 1.23 0 0 1 .44.65l.7-.8.1.54-.77.76c0 .03 0 .08-.02.14z" class="cls-1"/></g></svg>